<svg xmlns="http://www.w3.org/2000/svg" version="1.1" xmlns:xlink="http://www.w3.org/1999/xlink" viewBox="0 0 200 200"><rect width="200" height="200" fill="url('#gradient')"></rect><defs><linearGradient id="gradient" gradientTransform="rotate(0 0.5 0.5)"><stop offset="0%" stop-color="#ffdd00"></stop><stop offset="100%" stop-color="#ffdd00"></stop></linearGradient></defs><g><g fill="#081c45" transform="matrix(2.051896005072923,0,0,2.051896005072923,18.796019108018776,114.58835573651174)" stroke="#ffdd00" stroke-width="0"><path d="M1.07-14.22L5.58-14.22L8.75-4.33L11.91-14.22L16.43-14.22L16.43 0L12.99 0L12.99-3.32L13.32-10.12L9.88 0L7.62 0L4.17-10.13L4.50-3.32L4.50 0L1.07 0L1.07-14.22ZM20.91-14.22L23.54-8.05L26.15-14.22L29.85-14.22L25.27-5.11L25.27 0L21.80 0L21.80-5.11L17.23-14.22L20.91-14.22ZM35.57 0L30.89 0L30.89-14.22L35.47-14.22Q37.35-14.22 38.86-13.36Q40.36-12.51 41.21-10.95Q42.05-9.39 42.06-7.46L42.06-7.46L42.06-6.81Q42.06-4.85 41.24-3.31Q40.41-1.76 38.91-0.88Q37.41-0.01 35.57 0L35.57 0ZM35.47-11.57L34.32-11.57L34.32-2.64L35.51-2.64Q36.98-2.64 37.77-3.69Q38.56-4.74 38.56-6.81L38.56-6.81L38.56-7.42Q38.56-9.48 37.77-10.53Q36.98-11.57 35.47-11.57L35.47-11.57ZM52.64-8.57L52.64-6.03L47.25-6.03L47.25-2.64L53.61-2.64L53.61 0L43.82 0L43.82-14.22L53.63-14.22L53.63-11.57L47.25-11.57L47.25-8.57L52.64-8.57ZM63.83-8.57L63.83-6.03L58.44-6.03L58.44-2.64L64.80-2.64L64.80 0L55.01 0L55.01-14.22L64.82-14.22L64.82-11.57L58.44-11.57L58.44-8.57L63.83-8.57ZM78.08-14.22L78.08 0L74.67 0L69.63-8.85L69.63 0L66.20 0L66.20-14.22L69.63-14.22L74.66-5.37L74.66-14.22L78.08-14.22Z"></path></g></g></svg>