<?xml version="1.0" encoding="UTF-8"?>
<svg xmlns="http://www.w3.org/2000/svg" viewBox="0 0 128 128">
  <path fill="#2684FF" d="M108.3 0H59.7C59.7 11.5 68.8 20.7 80.3 20.7h9.2v8.9c0 11.5 9.2 20.7 20.7 20.7V3.7c.1-2-1.6-3.7-3.6-3.7h1.7z"/>
  <path fill="#2684FF" d="M59.7 0h48.6c0 11.5-9.2 20.7-20.7 20.7h-9.2v8.9c0 11.5-9.2 20.7-20.7 20.7V3.7c0-2 1.7-3.7 3.7-3.7h-1.7z" opacity=".8"/>
  <path fill="#2684FF" d="M39 50.3h48.6c0 11.5-9.2 20.7-20.7 20.7h-9.2v8.9c0 11.5-9.2 20.7-20.7 20.7V54c0-2 1.7-3.7 3.7-3.7H39z" opacity=".6"/>
  <path fill="#2684FF" d="M19.7 100.7h48.6c0 11.5-9.2 20.7-20.7 20.7h-9.2v8.9c0 11.5-9.2 20.7-20.7 20.7v-47c0-2 1.7-3.7 3.7-3.7h-1.7z" opacity=".4"/>
</svg>
