<?xml version="1.0" encoding="UTF-8"?>
<svg xmlns="http://www.w3.org/2000/svg" viewBox="0 0 128 128">
  <path fill="#FF2D20" d="M64 0C28.7 0 0 28.7 0 64s28.7 64 64 64 64-28.7 64-64S99.3 0 64 0zm32.2 84.5c-.3.6-5.8 7.7-8.1 11.1-1.3 1.9-2.9 1.7-4.5.5-1.7-1.1-25.9-17.2-27.2-18.1-1.7-1.3-2.3-2.1-.5-3.4 1.6-1.2 3.2-2.5 4.7-3.7 1-.8 2.1-1.7 3.2-2.6.5-.4 1.2-.1 1.4.2.6.7 17.8 15.3 19.1 16.4.6.5 1.1.4 1.7-.1 1.8-1.6 21.2-18.9 21.8-19.5.7-.6 1.1-.9.1-1.9-.9-.9-17.3-15.3-18.4-16.3-.6-.5-.6-1.2 0-1.7 1.1-1 3.3-2.9 4.5-3.9 1.1-.9 1.8-1.1 3.1.1 1.3 1.3 17.5 17.3 18.9 18.8 1.4 1.5 1.4 2.5.2 4.1z"/>
</svg>
