<?xml version="1.0" encoding="UTF-8"?>
<svg xmlns="http://www.w3.org/2000/svg" viewBox="0 0 128 128">
  <path fill="#8993be" d="M64 33.039c-33.74 0-61.094 13.862-61.094 30.961s27.354 30.961 61.094 30.961 61.094-13.862 61.094-30.961-27.354-30.961-61.094-30.961zm-15.897 36.993c-1.458 1.364-3.077 1.927-4.86 2.507-1.783.581-4.052.461-6.811.461h-6.253l-1.733 10h-7.301l6.515-34h14.04c4.224 0 7.305 1.215 9.242 3.432 1.937 2.217 2.519 5.364 1.747 9.337-.319 1.637-.856 3.159-1.614 4.515a15.118 15.118 0 0 1-2.972 3.748zm31.882-4.837c-.457 2.545-1.277 4.606-2.46 6.181-1.183 1.575-2.575 2.731-4.178 3.469-1.602.737-3.614 1.106-6.034 1.106h-7.712l-1.696 10h-7.301l6.514-34h14.041c4.224 0 7.182 1.215 8.875 3.432 1.693 2.217 2.07 5.364 1.095 9.337-.342 1.637-.912 3.159-1.71 4.515a13.303 13.303 0 0 1-3.102 3.748c-1.184 1.364-2.749 1.927-4.687 2.507-1.939.581-4.207.461-6.805.461h-6.253l-1.733 10h-7.301l6.514-34h14.041c4.224 0 7.305 1.215 9.242 3.432 1.937 2.217 2.519 5.364 1.747 9.337-.319 1.637-.855 3.159-1.614 4.515-.759 1.356-1.764 2.621-3.015 3.748zM64 62.25c-2.405 0-4.356 1.91-4.356 4.267 0 2.356 1.951 4.267 4.356 4.267 2.406 0 4.356-1.91 4.356-4.267.001-2.356-1.95-4.267-4.356-4.267zM37.793 54.596c-.523 0-.914.101-1.175.3-.262.2-.439.7-.532 1.5l-2.013 10.9c-.1.6-.026 1 .225 1.2.25.2.799.3 1.648.3h2.612c1.372 0 2.446-.167 3.22-.5.775-.333 1.353-.834 1.735-1.5.383-.666.652-1.467.806-2.4.152-.933.135-1.733-.052-2.4-.188-.666-.518-1.167-.989-1.5-.473-.333-1.112-.5-1.914-.5h-3.571z"/>
  <path fill="#232531" d="M92.982 38.361c-2.415-5.587-10.082-9.155-22.083-10.717-8.011-1.041-17.381-.967-27.774.222-9.431 1.063-17.396 2.795-23.927 5.214-9.92 3.677-15.892 8.568-17.896 14.673-1.122 3.415-1.169 7.052-.148 10.837 1.128 4.192 3.446 7.538 6.862 9.94 7.986 5.615 21.007 7.45 38.144 5.372 5.265-.639 11.066-1.784 17.34-3.415l2.263 6.917c.756 2.309 1.335 3.98 1.74 5.031.403 1.051.719 1.795.945 2.23.227.434.444.75.65.945.618.59 1.417.883 2.396.883 1.839 0 3.439-.354 4.799-1.062 1.359-.708 2.573-1.811 3.642-3.308 1.068-1.497 2.031-3.419 2.889-5.765.857-2.347 1.732-5.133 2.622-8.358l3.035-10.767c1.069-3.812 1.793-6.886 2.175-9.221.381-2.335.511-4.188.388-5.558-.122-1.37-.5-2.405-1.132-3.103-.633-.698-1.564-1.047-2.795-1.047-1.232 0-2.257.308-3.078.922-.82.615-1.479 1.547-1.977 2.795-.498 1.248-.939 2.814-1.323 4.698-.384 1.885-.805 4.138-1.264 6.759l-.859 4.075c-2.193.756-4.722 1.442-7.588 2.059-2.866.617-5.427 1.095-7.684 1.433-4.252.638-7.895.884-10.93.737-3.035-.147-5.527-.663-7.475-1.548-1.949-.885-3.398-2.155-4.347-3.809-.949-1.654-1.423-3.705-1.423-6.153 0-2.447.59-4.586 1.77-6.418 1.18-1.831 2.949-3.338 5.308-4.52 2.359-1.181 5.308-2.04 8.848-2.58 3.539-.538 7.69-.807 12.454-.807 4.252 0 8.073.269 11.464.807 3.389.539 6.152 1.429 8.286 2.67 2.134 1.243 3.539 2.91 4.214 5.003.674 2.093.501 4.68-.521 7.76l-3.035 9.22c-.566 1.724-.883 3.107-.948 4.151-.067 1.045.096 1.858.489 2.438.392.58 1.06.871 2.004.871 1.45 0 2.697-.41 3.741-1.228 1.044-.819 1.922-1.962 2.634-3.428.712-1.465 1.299-3.2 1.76-5.204.462-2.003.82-4.188 1.078-6.555.257-2.366.358-4.881.303-7.543-.056-2.662-.303-5.324-.741-7.987z"/>
</svg>
