<?xml version="1.0" encoding="UTF-8"?>
<svg xmlns="http://www.w3.org/2000/svg" viewBox="0 0 128 128">
  <path fill="#1A171B" d="M64 5.3C30.4 5.3 3.2 32.5 3.2 66.1c0 27.2 17.9 50.3 42.6 58.2 3.1.6 4.3-1.3 4.3-3 0-1.5-.1-6.4-.1-11.6-15.6 2.9-19.8-3.8-21-7.2-1-2.4-3.9-9.8-6.6-11.7-2.3-1.2-5.5-4.1-.1-4.2 5.1-.1 8.7 4.7 9.9 6.6 5.8 9.7 15 7 18.7 5.3.6-4.2 2.3-7 4.1-8.6-14.3-1.6-29.3-7.2-29.3-31.9 0-7 2.5-12.8 6.6-17.3-.7-1.6-2.9-8.2.6-17 0 0 5.4-1.7 17.6 6.6 5.1-1.4 10.6-2.1 16-2.1s10.9.7 16 2.1c12.2-8.3 17.6-6.6 17.6-6.6 3.5 8.8 1.3 15.4.6 17 4.1 4.5 6.6 10.2 6.6 17.3 0 24.8-15.1 30.3-29.4 31.9 2.3 2 4.3 5.8 4.3 11.7 0 8.6-.1 15.4-.1 17.5 0 1.7 1.1 3.6 4.3 3C107.2 116.4 125 93.3 125 66.1c0-33.6-27.2-60.8-61-60.8z"/>
</svg>
