<?xml version="1.0" encoding="UTF-8"?>
<svg xmlns="http://www.w3.org/2000/svg" viewBox="0 0 128 128">
  <path fill="#21759B" d="M64 0C28.7 0 0 28.7 0 64s28.7 64 64 64 64-28.7 64-64S99.3 0 64 0zM12 64c0-8.6 1.9-16.8 5.4-24.1l29.7 81.3C25.5 112.1 12 89.9 12 64zm52 52c-5.8 0-11.4-.9-16.7-2.5l17.7-51.5 18.1 49.7c.1.3.3.6.4.8-6 2.3-12.5 3.5-19.5 3.5zm8.3-76.2c3.6-.1 6.8-.6 6.8-.6 3.2-.4 2.8-5.1-.4-4.9 0 0-9.6.8-15.8.8-5.8 0-15.6-.8-15.6-.8-3.2-.2-3.6 4.7-.4 4.9 0 0 3 .5 6.2.6l9.3 25.5-13 39-21.7-64.5c3.6-.1 6.8-.6 6.8-.6 3.2-.4 2.8-5.1-.4-4.9 0 0-9.6.8-15.8.8-1.1 0-2.4 0-3.8-.1 10.6-16 29-26.7 50-26.7 15.6 0 29.8 6 40.4 15.7-.3 0-.5-.1-.8-.1-5.8 0-10 5.1-10 10.5 0 4.9 2.8 9 5.8 13.9 2.3 4 4.9 9 4.9 16.4 0 5.1-2 11-4.5 19.2l-6 19.9-21.5-64zm35.4-3.6c5.5 10.1 8.7 21.7 8.7 34 0 26.1-14.1 48.9-35.2 61.1l21.6-62.5c4-10.1 5.4-18.2 5.4-25.4 0-2.6-.2-5-.5-7.2z"/>
</svg>
